<svg xmlns="http://www.w3.org/2000/svg" width="980" height="580" viewBox="0 0 980 580">
<rect width="100%" height="100%" fill="white"/>
<style>text{font-family:sans-serif;fill:#1f2937}.tick{font-size:13px}</style>
<text x="490.0" y="32" text-anchor="middle" font-size="20" font-weight="bold">OpenWebText baseline learning curves</text>
<line x1="88" y1="502" x2="938" y2="502" stroke="#374151"/>
<line x1="88" y1="74" x2="88" y2="502" stroke="#374151"/>
<line x1="88" y1="502.00" x2="938" y2="502.00" stroke="#e5e7eb"/>
<text class="tick" x="78" y="506.00" text-anchor="end">1.07</text>
<line x1="88" y1="416.40" x2="938" y2="416.40" stroke="#e5e7eb"/>
<text class="tick" x="78" y="420.40" text-anchor="end">2.31</text>
<line x1="88" y1="330.80" x2="938" y2="330.80" stroke="#e5e7eb"/>
<text class="tick" x="78" y="334.80" text-anchor="end">3.54</text>
<line x1="88" y1="245.20" x2="938" y2="245.20" stroke="#e5e7eb"/>
<text class="tick" x="78" y="249.20" text-anchor="end">4.78</text>
<line x1="88" y1="159.60" x2="938" y2="159.60" stroke="#e5e7eb"/>
<text class="tick" x="78" y="163.60" text-anchor="end">6.02</text>
<line x1="88" y1="74.00" x2="938" y2="74.00" stroke="#e5e7eb"/>
<text class="tick" x="78" y="78.00" text-anchor="end">7.25</text>
<line x1="88.00" y1="502" x2="88.00" y2="507" stroke="#374151"/>
<text class="tick" x="88.00" y="528" text-anchor="middle">0M</text>
<line x1="258.00" y1="502" x2="258.00" y2="507" stroke="#374151"/>
<text class="tick" x="258.00" y="528" text-anchor="middle">66M</text>
<line x1="428.00" y1="502" x2="428.00" y2="507" stroke="#374151"/>
<text class="tick" x="428.00" y="528" text-anchor="middle">131M</text>
<line x1="598.00" y1="502" x2="598.00" y2="507" stroke="#374151"/>
<text class="tick" x="598.00" y="528" text-anchor="middle">197M</text>
<line x1="768.00" y1="502" x2="768.00" y2="507" stroke="#374151"/>
<text class="tick" x="768.00" y="528" text-anchor="middle">262M</text>
<line x1="938.00" y1="502" x2="938.00" y2="507" stroke="#374151"/>
<text class="tick" x="938.00" y="528" text-anchor="middle">328M</text>
<polyline points="105.00,103.78 122.00,158.28 139.00,199.09 156.00,219.28 173.00,231.49 190.00,234.62 207.00,239.69 224.00,241.63 241.00,244.69 258.00,258.10 275.00,254.41 292.00,257.31 309.00,262.87 326.00,268.26 343.00,268.50 360.00,270.25 377.00,280.59 394.00,275.63 411.00,277.36 428.00,275.07 445.00,281.27 462.00,275.94 479.00,287.23 496.00,272.76 513.00,280.23 530.00,279.64 547.00,292.54 564.00,281.69 581.00,288.66 598.00,284.88 615.00,286.17 632.00,291.12 649.00,282.86 666.00,288.39 683.00,289.56 700.00,290.03 717.00,291.11 734.00,290.72 751.00,294.89 768.00,296.05 785.00,296.50 802.00,290.18 819.00,285.77 836.00,294.65 853.00,288.11 870.00,286.29 887.00,294.25 904.00,292.97 921.00,302.70 938.00,307.05" fill="none" stroke="#2563eb" stroke-width="2.8"/>
<line x1="100" y1="69" x2="124" y2="69" stroke="#2563eb" stroke-width="3"/>
<text class="tick" x="130" y="74">OWT train</text>
<polyline points="105.00,96.93 122.00,162.48 139.00,195.28 156.00,215.92 173.00,228.30 190.00,233.50 207.00,241.78 224.00,247.71 241.00,250.64 258.00,256.43 275.00,258.38 292.00,261.61 309.00,264.06 326.00,266.10 343.00,269.23 360.00,269.31 377.00,273.14 394.00,272.53 411.00,274.66 428.00,277.48 445.00,277.74 462.00,279.30 479.00,280.51 496.00,280.73 513.00,282.38 530.00,284.13 547.00,284.83 564.00,282.98 581.00,285.44 598.00,287.39 615.00,287.87 632.00,289.19 649.00,289.55 666.00,289.31 683.00,289.86 700.00,289.62 717.00,291.08 734.00,292.60 751.00,292.09 768.00,291.09 785.00,292.69 802.00,294.31 819.00,293.47 836.00,293.51 853.00,294.40 870.00,295.73 887.00,295.21 904.00,293.44 921.00,294.58 938.00,295.26" fill="none" stroke="#dc2626" stroke-width="2.8"/>
<line x1="100" y1="89" x2="124" y2="89" stroke="#dc2626" stroke-width="3"/>
<text class="tick" x="130" y="94">OWT validation</text>
<polyline points="105.00,313.74 122.00,385.89 139.00,414.26 156.00,428.77 173.00,439.09 190.00,443.41 207.00,449.48 224.00,449.52 241.00,453.72 258.00,455.58 275.00,457.43 292.00,460.05 309.00,460.15 326.00,461.39 343.00,464.25 360.00,464.29 377.00,465.07 394.00,466.70 411.00,466.63 428.00,466.82 445.00,469.22 462.00,469.16 479.00,468.73 496.00,470.09 513.00,472.03 530.00,471.53 547.00,472.18 564.00,472.57 581.00,473.22 598.00,473.40 615.00,471.29 632.00,475.76 649.00,473.52 666.00,474.37 683.00,475.52 700.00,476.66 717.00,476.46 734.00,477.36 751.00,476.52 768.00,477.41 785.00,475.76 802.00,477.10 819.00,477.28 836.00,477.84 853.00,476.96 870.00,479.07 887.00,477.91 904.00,478.07 921.00,478.42 938.00,477.10" fill="none" stroke="#16a34a" stroke-width="2.8"/>
<line x1="100" y1="109" x2="124" y2="109" stroke="#16a34a" stroke-width="3"/>
<text class="tick" x="130" y="114">TinyStories validation</text>
<text x="490.0" y="560" text-anchor="middle" font-size="15">processed training tokens</text>
<text x="22" y="290.0" text-anchor="middle" font-size="15" transform="rotate(-90 22 290.0)">cross-entropy loss (per token)</text>
</svg>