<svg xmlns="http://www.w3.org/2000/svg" width="980" height="580" viewBox="0 0 980 580">
<rect width="100%" height="100%" fill="white"/>
<style>text{font-family:sans-serif;fill:#1f2937}.tick{font-size:13px}</style>
<text x="490.0" y="32" text-anchor="middle" font-size="20" font-weight="bold">Pre-norm vs. post-norm on TinyStories</text>
<line x1="88" y1="502" x2="938" y2="502" stroke="#374151"/>
<line x1="88" y1="74" x2="88" y2="502" stroke="#374151"/>
<line x1="88" y1="502.00" x2="938" y2="502.00" stroke="#e5e7eb"/>
<text class="tick" x="78" y="506.00" text-anchor="end">1.21</text>
<line x1="88" y1="416.40" x2="938" y2="416.40" stroke="#e5e7eb"/>
<text class="tick" x="78" y="420.40" text-anchor="end">1.76</text>
<line x1="88" y1="330.80" x2="938" y2="330.80" stroke="#e5e7eb"/>
<text class="tick" x="78" y="334.80" text-anchor="end">2.32</text>
<line x1="88" y1="245.20" x2="938" y2="245.20" stroke="#e5e7eb"/>
<text class="tick" x="78" y="249.20" text-anchor="end">2.87</text>
<line x1="88" y1="159.60" x2="938" y2="159.60" stroke="#e5e7eb"/>
<text class="tick" x="78" y="163.60" text-anchor="end">3.43</text>
<line x1="88" y1="74.00" x2="938" y2="74.00" stroke="#e5e7eb"/>
<text class="tick" x="78" y="78.00" text-anchor="end">3.98</text>
<line x1="88.00" y1="502" x2="88.00" y2="507" stroke="#374151"/>
<text class="tick" x="88.00" y="528" text-anchor="middle">0M</text>
<line x1="258.00" y1="502" x2="258.00" y2="507" stroke="#374151"/>
<text class="tick" x="258.00" y="528" text-anchor="middle">66M</text>
<line x1="428.00" y1="502" x2="428.00" y2="507" stroke="#374151"/>
<text class="tick" x="428.00" y="528" text-anchor="middle">131M</text>
<line x1="598.00" y1="502" x2="598.00" y2="507" stroke="#374151"/>
<text class="tick" x="598.00" y="528" text-anchor="middle">197M</text>
<line x1="768.00" y1="502" x2="768.00" y2="507" stroke="#374151"/>
<text class="tick" x="768.00" y="528" text-anchor="middle">262M</text>
<line x1="938.00" y1="502" x2="938.00" y2="507" stroke="#374151"/>
<text class="tick" x="938.00" y="528" text-anchor="middle">328M</text>
<polyline points="105.00,103.52 122.00,264.25 139.00,327.45 156.00,359.77 173.00,382.76 190.00,392.39 207.00,405.90 224.00,406.00 241.00,415.34 258.00,419.50 275.00,423.61 292.00,429.46 309.00,429.69 326.00,432.44 343.00,438.82 360.00,438.91 377.00,440.64 394.00,444.28 411.00,444.11 428.00,444.55 445.00,449.88 462.00,449.75 479.00,448.79 496.00,451.81 513.00,456.14 530.00,455.03 547.00,456.48 564.00,457.35 581.00,458.81 598.00,459.20 615.00,454.50 632.00,464.46 649.00,459.46 666.00,461.36 683.00,463.92 700.00,466.46 717.00,466.00 734.00,468.03 751.00,466.15 768.00,468.12 785.00,464.45 802.00,467.44 819.00,467.84 836.00,469.08 853.00,467.14 870.00,471.83 887.00,469.25 904.00,469.60 921.00,470.38 938.00,467.45" fill="none" stroke="#2563eb" stroke-width="2.8"/>
<line x1="100" y1="69" x2="124" y2="69" stroke="#2563eb" stroke-width="3"/>
<text class="tick" x="130" y="74">Pre-norm baseline</text>
<polyline points="105.00,109.81 122.00,269.64 139.00,330.53 156.00,362.93 173.00,384.12 190.00,393.13 207.00,407.02 224.00,405.88 241.00,415.90 258.00,419.38 275.00,424.02 292.00,429.03 309.00,429.19 326.00,432.27 343.00,438.08 360.00,438.27 377.00,439.85 394.00,443.74 411.00,443.12 428.00,443.53 445.00,449.03 462.00,449.47 479.00,448.02 496.00,451.04 513.00,455.49 530.00,454.63 547.00,455.92 564.00,457.40 581.00,458.55 598.00,458.75 615.00,454.50 632.00,464.68 649.00,459.62 666.00,461.75 683.00,463.81 700.00,466.91 717.00,466.26 734.00,468.49 751.00,466.73 768.00,468.94 785.00,465.27 802.00,468.09 819.00,468.51 836.00,469.88 853.00,467.88 870.00,472.48 887.00,470.03 904.00,470.52 921.00,471.39 938.00,468.28" fill="none" stroke="#dc2626" stroke-width="2.8"/>
<line x1="100" y1="89" x2="124" y2="89" stroke="#dc2626" stroke-width="3"/>
<text class="tick" x="130" y="94">Post-norm</text>
<text x="490.0" y="560" text-anchor="middle" font-size="15">processed training tokens</text>
<text x="22" y="290.0" text-anchor="middle" font-size="15" transform="rotate(-90 22 290.0)">validation loss (per token)</text>
</svg>