<svg xmlns="http://www.w3.org/2000/svg" width="980" height="580" viewBox="0 0 980 580">
<rect width="100%" height="100%" fill="white"/>
<style>text{font-family:sans-serif;fill:#1f2937}.tick{font-size:13px}</style>
<text x="490.0" y="32" text-anchor="middle" font-size="20" font-weight="bold">RMSNorm ablation on TinyStories</text>
<line x1="88" y1="502" x2="938" y2="502" stroke="#374151"/>
<line x1="88" y1="74" x2="88" y2="502" stroke="#374151"/>
<line x1="88" y1="502.00" x2="938" y2="502.00" stroke="#e5e7eb"/>
<text class="tick" x="78" y="506.00" text-anchor="end">1.16</text>
<line x1="88" y1="416.40" x2="938" y2="416.40" stroke="#e5e7eb"/>
<text class="tick" x="78" y="420.40" text-anchor="end">1.86</text>
<line x1="88" y1="330.80" x2="938" y2="330.80" stroke="#e5e7eb"/>
<text class="tick" x="78" y="334.80" text-anchor="end">2.57</text>
<line x1="88" y1="245.20" x2="938" y2="245.20" stroke="#e5e7eb"/>
<text class="tick" x="78" y="249.20" text-anchor="end">3.27</text>
<line x1="88" y1="159.60" x2="938" y2="159.60" stroke="#e5e7eb"/>
<text class="tick" x="78" y="163.60" text-anchor="end">3.97</text>
<line x1="88" y1="74.00" x2="938" y2="74.00" stroke="#e5e7eb"/>
<text class="tick" x="78" y="78.00" text-anchor="end">4.68</text>
<line x1="88.00" y1="502" x2="88.00" y2="507" stroke="#374151"/>
<text class="tick" x="88.00" y="528" text-anchor="middle">0M</text>
<line x1="258.00" y1="502" x2="258.00" y2="507" stroke="#374151"/>
<text class="tick" x="258.00" y="528" text-anchor="middle">66M</text>
<line x1="428.00" y1="502" x2="428.00" y2="507" stroke="#374151"/>
<text class="tick" x="428.00" y="528" text-anchor="middle">131M</text>
<line x1="598.00" y1="502" x2="598.00" y2="507" stroke="#374151"/>
<text class="tick" x="598.00" y="528" text-anchor="middle">197M</text>
<line x1="768.00" y1="502" x2="768.00" y2="507" stroke="#374151"/>
<text class="tick" x="768.00" y="528" text-anchor="middle">262M</text>
<line x1="938.00" y1="502" x2="938.00" y2="507" stroke="#374151"/>
<text class="tick" x="938.00" y="528" text-anchor="middle">328M</text>
<polyline points="105.00,181.97 122.00,308.74 139.00,358.60 156.00,384.09 173.00,402.22 190.00,409.82 207.00,420.48 224.00,420.56 241.00,427.93 258.00,431.20 275.00,434.45 292.00,439.06 309.00,439.24 326.00,441.41 343.00,446.45 360.00,446.51 377.00,447.88 394.00,450.75 411.00,450.62 428.00,450.96 445.00,455.17 462.00,455.07 479.00,454.31 496.00,456.69 513.00,460.11 530.00,459.23 547.00,460.38 564.00,461.06 581.00,462.21 598.00,462.52 615.00,458.81 632.00,466.67 649.00,462.73 666.00,464.22 683.00,466.24 700.00,468.25 717.00,467.89 734.00,469.48 751.00,468.00 768.00,469.56 785.00,466.66 802.00,469.02 819.00,469.33 836.00,470.31 853.00,468.78 870.00,472.48 887.00,470.45 904.00,470.73 921.00,471.33 938.00,469.03" fill="none" stroke="#2563eb" stroke-width="2.8"/>
<line x1="100" y1="69" x2="124" y2="69" stroke="#2563eb" stroke-width="3"/>
<text class="tick" x="130" y="74">RMSNorm, peak LR=1e-3</text>
<polyline points="105.00,208.56 122.00,310.29 139.00,355.15 156.00,379.38 173.00,395.68 190.00,401.83 207.00,413.04 224.00,411.25 241.00,419.63 258.00,422.37 275.00,426.41 292.00,431.35 309.00,430.95 326.00,433.15 343.00,438.72 360.00,438.96 377.00,439.88 394.00,443.12 411.00,443.22 428.00,443.58 445.00,447.91 462.00,448.68 479.00,447.51 496.00,449.72 513.00,453.93 530.00,453.13 547.00,454.78 564.00,455.70 581.00,457.05 598.00,457.28 615.00,454.23 632.00,462.07 649.00,458.54 666.00,460.18 683.00,461.88 700.00,464.49 717.00,464.11 734.00,466.16 751.00,464.70 768.00,466.65 785.00,463.58 802.00,466.08 819.00,466.64 836.00,467.92 853.00,466.03 870.00,470.06 887.00,467.97 904.00,468.40 921.00,469.23 938.00,466.75" fill="none" stroke="#dc2626" stroke-width="2.8"/>
<line x1="100" y1="89" x2="124" y2="89" stroke="#dc2626" stroke-width="3"/>
<text class="tick" x="130" y="94">No RMSNorm, peak LR=1e-3</text>
<polyline points="105.00,103.52 122.00,247.12 139.00,302.96 156.00,329.68 173.00,348.81 190.00,358.62 207.00,373.51 224.00,377.64 241.00,388.92 258.00,393.29 275.00,398.37 292.00,404.90 309.00,405.41 326.00,408.53 343.00,414.98 360.00,415.87 377.00,416.74 394.00,420.77 411.00,421.44 428.00,422.47 445.00,427.03 462.00,427.46 479.00,426.55 496.00,428.75 513.00,433.06 530.00,432.14 547.00,433.64 564.00,434.87 581.00,436.20 598.00,435.90 615.00,431.66 632.00,440.74 649.00,436.42 666.00,438.17 683.00,439.63 700.00,442.45 717.00,441.69 734.00,443.56 751.00,441.65 768.00,443.93 785.00,440.50 802.00,442.84 819.00,443.67 836.00,444.44 853.00,442.16 870.00,446.65 887.00,444.19 904.00,444.60 921.00,445.29 938.00,442.60" fill="none" stroke="#16a34a" stroke-width="2.8"/>
<line x1="100" y1="109" x2="124" y2="109" stroke="#16a34a" stroke-width="3"/>
<text class="tick" x="130" y="114">No RMSNorm, peak LR=3e-4</text>
<text x="490.0" y="560" text-anchor="middle" font-size="15">processed training tokens</text>
<text x="22" y="290.0" text-anchor="middle" font-size="15" transform="rotate(-90 22 290.0)">validation loss (per token)</text>
</svg>